<svg id="Laag_1" data-name="Laag 1" xmlns="http://www.w3.org/2000/svg" viewBox="0 0 143.69 203.29"><defs><style>.cls-1{fill:#f4e487;opacity:0.56;}.cls-2{fill:#ff723e;}.cls-2,.cls-3,.cls-5,.cls-6,.cls-7,.cls-8,.cls-9{stroke:#000;}.cls-2,.cls-3,.cls-4,.cls-5,.cls-6,.cls-7,.cls-8,.cls-9{stroke-miterlimit:10;}.cls-2,.cls-3,.cls-4,.cls-5,.cls-6,.cls-7,.cls-8{stroke-width:0.75px;}.cls-3,.cls-9{fill:#ede369;}.cls-4{fill:none;stroke:#f41414;}.cls-5{fill:#11524e;}.cls-6{fill:#1ea096;}.cls-7{fill:#3d4953;}.cls-8{fill:#64656a;}.cls-9{stroke-width:0.25px;}</style></defs><title>uvo</title><path class="cls-1" d="M1230.72,590.47c-3.87-7.62-22.42-13.38-44.71-13.38-23.1,0-42.17,6.18-45.08,14.2l26-115.06h37.34Z" transform="translate(-1112.86 -406.47)"/><path class="cls-2" d="M1163.79,466.69c5-2.44,12.73-3.51,21.16-2.56,8.21.93,15.32,3.58,19.72,6.95-.17.51-.36,1-.56,1.48h0a22.26,22.26,0,0,1-5.61,7.88,21,21,0,0,1-9.12,4.8,20.49,20.49,0,0,1-14-1.71,21.39,21.39,0,0,1-7.73-6.79,22.51,22.51,0,0,1-3.71-9.15C1163.87,467.29,1163.83,467,1163.79,466.69Z" transform="translate(-1112.86 -406.47)"/><path class="cls-1" d="M1231.47,593.43c0,9-20.36,16.33-45.46,16.33-24.51,0-44.49-7-45.42-15.68a1.28,1.28,0,0,1,0-.17l.36-2.62c2.91-8,22-14.2,45.08-14.2,22.29,0,40.84,5.76,44.71,13.38A6.47,6.47,0,0,1,1231.47,593.43Z" transform="translate(-1112.86 -406.47)"/><polygon class="cls-3" points="10.93 76.89 22.94 51.27 28.91 54.89 10.93 76.89"/><polygon class="cls-3" points="137.2 80.38 122.47 56.21 128.79 53.24 137.2 80.38"/><polygon class="cls-3" points="32.99 93.53 43.91 53.59 55.38 58.42 32.99 93.53"/><polygon class="cls-3" points="112.32 93.13 91.81 57.17 103.33 52.47 112.32 93.13"/><path class="cls-4" d="M1255.46,451.5a12.17,12.17,0,0,0,0-2.09c.24.39.47.77.69,1.16-.21.35-.43.7-.67,1C1255.45,451.58,1255.46,451.54,1255.46,451.5Z" transform="translate(-1112.86 -406.47)"/><path class="cls-4" d="M1255.46,451.5a12.17,12.17,0,0,0,0-2.09c.24.39.47.77.69,1.16-.21.35-.43.7-.67,1C1255.45,451.58,1255.46,451.54,1255.46,451.5Z" transform="translate(-1112.86 -406.47)"/><path class="cls-5" d="M1255.45,451.61c-1,12.62-20.62,22.13-47.56,24.6a167.34,167.34,0,0,1-47.9-2.79c-27-5.63-46.24-17.5-46.7-30.14,5.63,9.34,20.77,17.62,40.76,22.55a165.83,165.83,0,0,0,28.41,4.32,163.07,163.07,0,0,0,32.22-.91C1234.37,466.61,1249.54,460.2,1255.45,451.61Z" transform="translate(-1112.86 -406.47)"/><path class="cls-6" d="M1255.46,451.5s0,.08,0,.11c-5.91,8.59-21.08,15-40.77,17.63a163.07,163.07,0,0,1-32.22.91,165.83,165.83,0,0,1-28.41-4.32c-20-4.93-35.13-13.21-40.76-22.55,0-.41,0-.83,0-1.24,4.52-7,15.08-12.55,29.23-15.9a120.1,120.1,0,0,1,12.22-2.21,38.65,38.65,0,0,0-3.81,7.64h0a22,22,0,0,0-2.62,1.33h0c-2.72,1.62-4.31,3.54-4.45,5.66-.16,2.39,1.52,4.76,4.61,6.93,6.73,4.72,20.13,8.52,35.76,9.56,16.67,1.12,31.25-1.2,38.09-5.48,2.52-1.58,4-3.43,4.13-5.47s-1.11-4.12-3.47-6.05c-.41-.33-.85-.67-1.33-1a39.17,39.17,0,0,0-2.93-8.69c3.93,1.08,7.65,2.3,11.12,3.63,12.21,4.69,21.3,10.77,25.58,17.41A12.17,12.17,0,0,1,1255.46,451.5Z" transform="translate(-1112.86 -406.47)"/><path class="cls-7" d="M1222,438.63c-8.62,4.67-22,7.16-36.83,6.17-14.45-1-27.1-5-35.06-10.6.26-.89.55-1.77.87-2.63h0a38.6,38.6,0,0,1,9.18-14.23,36.63,36.63,0,0,1,15.57-9.13,35.8,35.8,0,0,1,24.67,1.86,37.39,37.39,0,0,1,14.07,11.28,38.77,38.77,0,0,1,4.29,7,39.17,39.17,0,0,1,2.93,8.69C1221.77,437.58,1221.88,438.1,1222,438.63Z" transform="translate(-1112.86 -406.47)"/><path class="cls-8" d="M1226.46,444.1c-.14,2-1.61,3.89-4.13,5.47-6.84,4.28-21.42,6.6-38.09,5.48-15.63-1-29-4.84-35.76-9.56-3.09-2.17-4.77-4.54-4.61-6.93.14-2.12,1.73-4,4.45-5.66h0a22,22,0,0,1,2.62-1.33c-.32.86-.61,1.74-.87,2.63,8,5.56,20.61,9.63,35.06,10.6,14.82,1,28.21-1.5,36.83-6.17-.09-.53-.2-1.05-.31-1.57.48.32.92.66,1.33,1C1225.35,440,1226.6,442,1226.46,444.1Z" transform="translate(-1112.86 -406.47)"/><circle class="cls-3" cx="38.11" cy="33.07" r="2.44"/><circle class="cls-3" cx="46.22" cy="37.35" r="2.4"/><circle class="cls-3" cx="55.24" cy="40.77" r="2.44"/><circle class="cls-3" cx="66.04" cy="42.6" r="2.4"/><circle class="cls-3" cx="77.53" cy="43.38" r="2.44"/><circle class="cls-3" cx="87.15" cy="42.97" r="2.4"/><circle class="cls-3" cx="96.96" cy="41.61" r="2.44"/><circle class="cls-3" cx="106.7" cy="38.23" r="2.4"/><circle class="cls-9" cx="10.93" cy="49.99" r="1.13"/><circle class="cls-9" cx="18.79" cy="54.72" r="1.13"/><circle class="cls-9" cx="28.47" cy="58.79" r="1.13"/><circle class="cls-9" cx="38.23" cy="61.81" r="1.13"/><circle class="cls-9" cx="46.97" cy="64.61" r="1.13"/><circle class="cls-9" cx="57.33" cy="66.35" r="1.13"/><circle class="cls-9" cx="76.28" cy="67.33" r="1.13"/><circle class="cls-9" cx="67.79" cy="67.33" r="1.13"/><circle class="cls-9" cx="85.43" cy="67.56" r="1.13"/><circle class="cls-9" cx="95.91" cy="66.81" r="1.13"/><circle class="cls-9" cx="105.98" cy="65.08" r="1.13"/><circle class="cls-9" cx="115.04" cy="63.62" r="1.13"/><circle class="cls-9" cx="125.06" cy="60.48" r="1.13"/><circle class="cls-9" cx="130.96" cy="56.9" r="1.13"/><circle class="cls-9" cx="136.25" cy="53.59" r="1.13"/><path class="cls-1" d="M1139.32,598.8h0l0-.19A1.37,1.37,0,0,0,1139.32,598.8Z" transform="translate(-1112.86 -406.47)"/><path class="cls-1" d="M1139.68,595.66l-.38,3c0-.18,0-.36,0-.54A7.66,7.66,0,0,1,1139.68,595.66Z" transform="translate(-1112.86 -406.47)"/></svg>